<svg width="20" height="20" viewBox="0 0 20 20" fill="none" xmlns="http://www.w3.org/2000/svg">
<path d="M15.8231 2.49805H4.164C3.24412 2.49805 2.49841 3.24376 2.49841 4.16364V15.8228C2.49841 16.7427 3.24412 17.4884 4.164 17.4884H15.8231C16.743 17.4884 17.4887 16.7427 17.4887 15.8228V4.16364C17.4887 3.24376 16.743 2.49805 15.8231 2.49805Z" stroke="#99A1AF" stroke-width="1.66559" stroke-linecap="round" stroke-linejoin="round"/>
<path d="M7.49518 9.16028C8.41506 9.16028 9.16077 8.41457 9.16077 7.49469C9.16077 6.57481 8.41506 5.8291 7.49518 5.8291C6.5753 5.8291 5.82959 6.57481 5.82959 7.49469C5.82959 8.41457 6.5753 9.16028 7.49518 9.16028Z" stroke="#99A1AF" stroke-width="1.66559" stroke-linecap="round" stroke-linejoin="round"/>
<path d="M17.4887 12.4922L14.9187 9.92223C14.6063 9.60998 14.1828 9.43457 13.7411 9.43457C13.2995 9.43457 12.8759 9.60998 12.5635 9.92223L4.99677 17.489" stroke="#99A1AF" stroke-width="1.66559" stroke-linecap="round" stroke-linejoin="round"/>
</svg>
