<svg width="20" height="20" viewBox="0 0 20 20" fill="none" xmlns="http://www.w3.org/2000/svg">
<path d="M15.8231 9.16113H4.16397C3.24409 9.16113 2.49838 9.90684 2.49838 10.8267V16.6563C2.49838 17.5762 3.24409 18.3219 4.16397 18.3219H15.8231C16.743 18.3219 17.4887 17.5762 17.4887 16.6563V10.8267C17.4887 9.90684 16.743 9.16113 15.8231 9.16113Z" stroke="#99A1AF" stroke-width="1.66559" stroke-linecap="round" stroke-linejoin="round"/>
<path d="M5.82957 9.16118V5.82999C5.82957 4.72564 6.26828 3.66651 7.04918 2.88562C7.83007 2.10472 8.8892 1.66602 9.99355 1.66602C11.0979 1.66602 12.157 2.10472 12.9379 2.88562C13.7188 3.66651 14.1575 4.72564 14.1575 5.82999V9.16118" stroke="#99A1AF" stroke-width="1.66559" stroke-linecap="round" stroke-linejoin="round"/>
</svg>
