<svg width="40" height="40" viewBox="0 0 40 40" fill="none" xmlns="http://www.w3.org/2000/svg">
<path d="M0 14C0 6.26801 6.26801 0 14 0H25.9953C33.7273 0 39.9953 6.26801 39.9953 14V25.9953C39.9953 33.7273 33.7273 39.9953 25.9953 39.9953H14C6.26801 39.9953 0 33.7273 0 25.9953V14Z" fill="url(#paint0_linear_30_2370)"/>
<path d="M10.997 24.3367C11.144 24.7074 11.1767 25.1134 11.091 25.5028L10.0268 28.7901C9.99255 28.9568 10.0014 29.1295 10.0526 29.2918C10.1038 29.4541 10.1956 29.6007 10.3193 29.7176C10.443 29.8345 10.5945 29.9179 10.7594 29.9598C10.9244 30.0017 11.0973 30.0008 11.2618 29.9571L14.672 28.9599C15.0394 28.8871 15.4199 28.9189 15.7701 29.0519C17.9037 30.0483 20.3207 30.2591 22.5947 29.6471C24.8686 29.0351 26.8533 27.6397 28.1986 25.707C29.5439 23.7743 30.1634 21.4285 29.9478 19.0836C29.7321 16.7387 28.6952 14.5453 27.0199 12.8904C25.3447 11.2354 23.1388 10.2254 20.7914 10.0384C18.444 9.85141 16.106 10.4995 14.1899 11.8683C12.2737 13.2372 10.9026 15.2388 10.3185 17.52C9.73433 19.8012 9.97465 22.2154 10.997 24.3367Z" stroke="white" stroke-width="1.99836" stroke-linecap="round" stroke-linejoin="round"/>
<defs>
<linearGradient id="paint0_linear_30_2370" x1="0" y1="0" x2="39.9953" y2="39.9953" gradientUnits="userSpaceOnUse">
<stop stop-color="#AD46FF"/>
<stop offset="0.5" stop-color="#F6339A"/>
<stop offset="1" stop-color="#2B7FFF"/>
</linearGradient>
</defs>
</svg>
